<svg width="50" height="38" viewBox="0 0 50 38" fill="none" xmlns="http://www.w3.org/2000/svg">
<path d="M46.2004 12.6493C48.2279 19.2809 40.4627 27.5335 28.8563 31.0819C17.25 34.6303 6.1976 32.1309 4.17012 25.4993C2.14263 18.8677 9.90782 10.6151 21.5142 7.0667C33.1205 3.51829 44.1729 6.01772 46.2004 12.6493ZM6.66663 24.736C8.45326 30.5798 18.1927 32.7823 28.4202 29.6554C38.6478 26.5286 45.4905 19.2564 43.7039 13.4126C41.9172 7.56879 32.1778 5.36628 21.9503 8.49316C11.7227 11.62 4.88 18.8922 6.66663 24.736Z" fill="black"/>
<path d="M38.4389 14.909C39.6185 18.7672 34.6549 23.7047 27.3525 25.9373C20.05 28.1699 13.174 26.8521 11.9944 22.9939C10.8149 19.1357 15.7784 14.1982 23.0809 11.9656C30.3833 9.733 37.2594 11.0508 38.4389 14.909ZM14.2422 22.3067C15.2213 25.509 20.9284 26.6028 26.9894 24.7497C33.0504 22.8967 37.1702 18.7985 36.1912 15.5962C35.2121 12.3939 29.505 11.3001 23.444 13.1532C17.3829 15.0062 13.2632 19.1044 14.2422 22.3067Z" fill="black"/>
<path d="M30.2132 17.519C30.6665 19.0016 28.8028 20.8855 26.0506 21.727C23.2984 22.5684 20.6999 22.0487 20.2466 20.5661C19.7933 19.0835 21.657 17.1996 24.4092 16.3581C27.1614 15.5167 29.76 16.0364 30.2132 17.519ZM21.8413 20.0786C22.1495 21.0867 23.9165 21.4401 25.788 20.868C27.6595 20.2958 28.9268 19.0147 28.6186 18.0065C28.3104 16.9984 26.5433 16.645 24.6718 17.2171C22.8003 17.7893 21.5331 19.0704 21.8413 20.0786Z" fill="black"/>
</svg>
