<svg width="51" height="40" viewBox="0 0 51 40" fill="none" xmlns="http://www.w3.org/2000/svg">
<ellipse cx="25.5796" cy="19.8614" rx="22.0404" ry="13.1336" transform="rotate(-19 25.5796 19.8614)" fill="black"/>
<path d="M17.43 10.5247C21.5239 8.40026 28.5 7 28.5 7C28.5 7 24.9296 10.5247 24.4296 11.9823C23.9204 13.4666 23.4296 14.3045 23.4296 15.8692C23.4296 18.2985 23.4916 18.0556 23.9296 19.2702C24.3676 20.4848 26.3491 22.8199 26.4294 24.6147C26.5097 26.4095 25.8131 27.3494 25.4295 28.0158C24.4163 29.7761 23.3524 30.5552 21.5341 31.5279C20.0044 32.3462 18.1353 32.6499 16.4935 32.5931C14.8517 32.5363 13.2063 32.3894 11.4304 31.4168C9.8622 30.558 8.941 29.9494 7.93066 28.5016C6.89102 27.0119 6.46413 25.9286 6.43076 24.1289C6.40175 22.5645 6.81389 21.6872 7.43069 20.2419C8.22937 18.3705 9.03696 17.4528 10.3779 15.929L10.4305 15.8692C12.6897 13.3016 14.3635 12.1159 17.43 10.5247Z" fill="white"/>
</svg>
